<svg width="55" height="55" viewBox="0 0 55 55" fill="none" xmlns="http://www.w3.org/2000/svg">
<g clip-path="url(#clip0)">
<path d="M53.3065 18.9693C48.851 4.73698 33.6511 -3.21663 19.416 1.23707C5.18277 5.6926 -2.77181 20.8961 1.68286 35.1284L3.4319 34.5806C-0.721345 21.313 6.69451 7.13925 19.9639 2.98514C26.392 0.974103 33.2186 1.58608 39.1841 4.70765C45.1522 7.83104 49.5464 13.09 51.5584 19.5172C53.5695 25.9444 52.9583 32.7702 49.8359 38.7374C46.7144 44.7056 41.4554 49.0998 35.0273 51.1118C24.2683 54.4788 12.4749 50.2267 6.34088 40.7696L4.80346 41.7665C9.87376 49.5854 18.552 54.0877 27.5483 54.0867C30.2236 54.0867 32.9291 53.689 35.5743 52.859C42.4687 50.7013 48.1099 45.9874 51.4595 39.5868C54.8091 33.1861 55.4642 25.8638 53.3065 18.9693Z" fill="#5CAF01"/>
<path d="M22.1847 12.827L22.7107 11.0715L13.5486 8.32292C13.2279 8.22581 12.877 8.31379 12.6378 8.55291L10.8054 10.3853C10.592 10.5988 10.4976 10.9038 10.5526 11.2007C10.6076 11.4976 10.8054 11.7477 11.0812 11.8705L19.3271 15.5353L20.0711 13.8605L13.0447 10.7371L13.5468 10.235L22.1847 12.827Z" fill="#5CAF01"/>
<path d="M30.6954 7.36923C30.6954 6.86349 30.2858 6.45303 29.7792 6.45303C29.7783 6.45303 29.7783 6.45303 29.7774 6.45303C27.7617 6.45303 25.8661 7.23818 24.4405 8.66388L16.6711 16.4324L13.5092 15.6417C13.1969 15.5638 12.867 15.6545 12.6388 15.8826L10.8064 17.715C10.6067 17.9147 10.5096 18.1951 10.5444 18.4746C10.5792 18.754 10.7404 19.0032 10.9824 19.148L15.3673 21.7793L17.9986 26.1643C18.1434 26.4062 18.3917 26.5674 18.672 26.6022C18.7087 26.6068 18.7463 26.6087 18.7839 26.6087C19.0248 26.6087 19.2584 26.5134 19.4326 26.3412L21.265 24.5088C21.4922 24.2806 21.5838 23.9508 21.5059 23.6384L20.7162 20.4802L28.6093 12.6649C29.956 11.2548 30.6972 9.4023 30.6954 7.36923ZM19.055 19.5438C18.825 19.771 18.7325 20.1027 18.8104 20.4169L19.6011 23.5787L18.9653 24.2146L16.8204 20.6396C16.7425 20.5103 16.6353 20.4023 16.5062 20.3254L12.9312 18.1805L13.567 17.5446L16.7289 18.3354C17.0413 18.4133 17.3712 18.3226 17.5993 18.0944L25.7352 9.95852C26.5782 9.11473 27.6391 8.56774 28.7899 8.3689C28.6084 9.50134 28.0926 10.5513 27.301 11.3805L19.055 19.5438Z" fill="#5CAF01"/>
<path d="M28.8236 23.7189L26.075 14.4378L24.3177 14.9583L26.9004 23.6787L26.3443 24.1699L23.2897 17.0839L21.6066 17.8095L25.1615 26.0555C25.2778 26.3249 25.5161 26.5227 25.8028 26.5869C25.8697 26.6015 25.9365 26.6089 26.0035 26.6089C26.2243 26.6089 26.4405 26.5292 26.6091 26.3799L28.5515 24.6666C28.819 24.4308 28.9244 24.0616 28.8236 23.7189Z" fill="#5CAF01"/>
<path d="M17.8969 50.5189C11.3717 53.611 6.2528 54.0105 3.85601 51.6147C-0.29809 47.4606 4.2133 35.3915 14.3493 23.5394L12.9567 22.3483C1.83949 35.3474 -2.43643 47.915 2.55965 52.9102C3.95506 54.3047 5.92581 55.0001 8.37019 55.0001C11.2196 55.0001 14.7122 54.0556 18.6812 52.1745L17.8969 50.5189Z" fill="#5CAF01"/>
<path d="M48.9114 31.6734C48.752 31.3756 48.4415 31.1897 48.1033 31.1897H45.0047L42.509 26.1991C42.3533 25.8885 42.0362 25.6924 41.689 25.6924H32.5269C32.0201 25.6924 31.6107 26.1028 31.6107 26.6086V33.9383C31.6107 34.445 32.0203 34.8545 32.5269 34.8545H35.2755V44.9328C35.2755 45.4395 35.6849 45.849 36.1917 45.849H40.7726C41.0154 45.849 41.2482 45.7527 41.4214 45.5796L45.0862 41.9148C45.2584 41.7434 45.3546 41.5107 45.3546 41.267V37.8798L48.8655 32.6134C49.0525 32.3331 49.0709 31.9712 48.9114 31.6734ZM43.6753 37.0946C43.5754 37.2449 43.5214 37.4226 43.5214 37.6032V40.8887L40.3934 44.0166H37.108H37.107V33.9383C37.107 33.4316 36.6975 33.0221 36.1908 33.0221H33.4422V27.5249H41.1219L43.6176 32.5155C43.7734 32.826 44.0904 33.0222 44.4376 33.0222H46.3909L43.6753 37.0946Z" fill="#5CAF01"/>
<path d="M49.5501 23.86L46.1491 17.9083C45.986 17.6224 45.6818 17.4465 45.3539 17.4465H39.8567C39.5506 17.4465 39.2648 17.5994 39.0944 17.8541L37.5341 20.1951H35.2757V15.6141H39.8567C40.1004 15.6141 40.3322 15.5178 40.5044 15.3456L43.9008 11.9493H48.1025V10.1169H43.5215C43.2777 10.1169 43.0459 10.2131 42.8737 10.3853L39.4774 13.7817H34.3595C33.8528 13.7817 33.4433 14.1921 33.4433 14.6979V21.1113C33.4433 21.617 33.8529 22.0275 34.3595 22.0275H38.0243C38.3303 22.0275 38.6162 21.8745 38.7865 21.6198L40.3468 19.2789H44.8225L48.2235 25.2306C48.3866 25.5164 48.6908 25.6924 49.0188 25.6924H52.6836V23.86H49.5501Z" fill="#5CAF01"/>
<path d="M27.0297 33.0221H21.9118L19.4316 30.5419C19.2603 30.3696 19.0266 30.2735 18.7839 30.2735H14.2029C13.6971 30.2735 13.2867 30.6831 13.2867 31.1897V37.6031C13.2867 38.1098 13.6971 38.5193 14.2029 38.5193H17.8677V47.6814C17.8677 48.0287 18.0637 48.3457 18.3744 48.5013C18.5036 48.5654 18.6446 48.5976 18.784 48.5976C18.9782 48.5976 19.1715 48.5362 19.3336 48.4143L22.9984 45.6657C23.2293 45.4925 23.365 45.2204 23.365 44.9328V42.624L27.6024 39.2349C27.8195 39.0609 27.946 38.7979 27.946 38.5194V33.9384C27.9459 33.4317 27.5354 33.0221 27.0297 33.0221ZM26.1135 38.0796L21.876 41.4686C21.6589 41.6428 21.5325 41.9056 21.5325 42.1842V44.4747L19.7001 45.8491V37.6032C19.7001 37.0965 19.2896 36.687 18.7839 36.687H15.1191V32.106H18.4046L20.8847 34.5861C21.056 34.7583 21.2897 34.8546 21.5325 34.8546H26.1135V38.0796Z" fill="#5CAF01"/>
<path d="M8.5745 19.7234L5.82591 15.1424C5.66101 14.8666 5.36227 14.698 5.04076 14.698H4.12456V16.5304H4.52224L6.63597 20.0532L4.39311 22.296C4.22081 22.4673 4.12467 22.701 4.12467 22.9438V25.6924H1.37585V27.5248H5.04065C5.54639 27.5248 5.95685 27.1143 5.95685 26.6086V23.3231L8.437 20.8429C8.73392 20.5451 8.79074 20.0843 8.5745 19.7234Z" fill="#5CAF01"/>
<path d="M28.863 0.954872V2.07259L25.8917 2.81563C25.79 2.8413 25.6929 2.88438 25.6059 2.94207L23.2998 4.47949L18.278 1.96818L17.4581 3.60722L22.9552 6.35582C23.0845 6.41995 23.2247 6.45207 23.3648 6.45207C23.5426 6.45207 23.7194 6.39986 23.8724 6.29813L26.4891 4.55371L30.0009 3.67597C30.4086 3.57424 30.6954 3.20783 30.6954 2.78727V0.954872H28.863Z" fill="#5CAF01"/>
</g>
<defs>
<clipPath id="clip0">
<rect width="55" height="55" fill="white"/>
</clipPath>
</defs>
</svg>
