<svg width="55" height="55" viewBox="0 0 55 55" fill="none" xmlns="http://www.w3.org/2000/svg">
<path d="M46.5661 9.68559C46.5619 9.6814 46.5582 9.6772 46.5544 9.67258C46.5489 9.66671 46.5435 9.66042 46.5376 9.65454L46.1822 9.26682L39.1423 1.58154C38.3593 0.726776 37.3203 0.189247 36.1831 0.0415421C36.1819 0.0415421 36.1806 0.0415421 36.1794 0.0411224C36.1642 0.039444 36.1491 0.0373459 36.1336 0.0356674C35.9406 0.0121689 35.7455 0 35.5491 0H16.0533C13.8646 0 12.0837 1.78043 12.0837 3.96915V5.89981H10.7271C8.7809 5.89981 7.19727 7.48344 7.19727 9.43047V49.6041C7.19727 52.5797 9.61761 55 12.5931 55H37.254C39.2002 55 40.7838 53.4164 40.7838 51.4702V49.7879H43.8483C46.037 49.7879 47.8178 48.0071 47.8178 45.8188V12.9464C47.8178 11.7379 47.3735 10.5815 46.5661 9.68559ZM44.8893 11.0355H37.5683C37.1436 11.0355 36.7983 10.6902 36.7983 10.2655V2.45266C37.0811 2.59869 37.3392 2.79423 37.5578 3.03299L44.3787 10.4782L44.8893 11.0355ZM43.8487 47.6395H16.0533C15.0491 47.6395 14.2321 46.8225 14.2321 45.8188V40.8203C14.2321 40.227 13.7513 39.7461 13.1579 39.7461C12.565 39.7461 12.0837 40.227 12.0837 40.8203V45.8188C12.0837 48.0075 13.8646 49.7879 16.0533 49.7879H38.6354V51.4702C38.6354 52.2318 38.0156 52.8516 37.254 52.8516H12.5931C10.8026 52.8516 9.3457 51.3947 9.3457 49.6041V9.43047C9.3457 8.66802 9.96548 8.04825 10.7271 8.04825H12.0837V32.2266C12.0837 32.8199 12.565 33.3008 13.1579 33.3008C13.7513 33.3008 14.2321 32.8199 14.2321 32.2266V3.96915C14.2321 2.96543 15.0491 2.14844 16.0533 2.14844H34.6498V10.2655C34.6498 11.8747 35.9591 13.1839 37.5683 13.1839H45.6694V45.8188C45.6694 46.8225 44.8524 47.6395 43.8487 47.6395Z" fill="#5CAF01"/>
<path d="M19.9863 15.3064H31.4712C32.0642 15.3064 32.5455 14.8255 32.5455 14.2321C32.5455 13.6388 32.0642 13.1579 31.4712 13.1579H19.9863C19.393 13.1579 18.9121 13.6388 18.9121 14.2321C18.9121 14.8255 19.393 15.3064 19.9863 15.3064Z" fill="#5CAF01"/>
<path d="M36.8276 22.0433H19.9863C19.393 22.0433 18.9121 22.5242 18.9121 23.1175C18.9121 23.7109 19.393 24.1917 19.9863 24.1917H36.8276C37.421 24.1917 37.9019 23.7109 37.9019 23.1175C37.9019 22.5242 37.421 22.0433 36.8276 22.0433Z" fill="#5CAF01"/>
<path d="M36.8276 30.9287H19.9863C19.393 30.9287 18.9121 31.4096 18.9121 32.0029C18.9121 32.5962 19.393 33.0771 19.9863 33.0771H36.8276C37.421 33.0771 37.9019 32.5962 37.9019 32.0029C37.9019 31.4096 37.421 30.9287 36.8276 30.9287Z" fill="#5CAF01"/>
<path d="M36.8276 39.8137H19.9863C19.393 39.8137 18.9121 40.2945 18.9121 40.8879C18.9121 41.4812 19.393 41.9621 19.9863 41.9621H36.8276C37.421 41.9621 37.9019 41.4812 37.9019 40.8879C37.9019 40.2945 37.421 39.8137 36.8276 39.8137Z" fill="#5CAF01"/>
<path d="M13.1583 35.4505C12.565 35.4505 12.0841 35.933 12.0841 36.526C12.0841 37.1193 12.565 37.6002 13.1583 37.6002C13.7512 37.6002 14.2325 37.1193 14.2325 36.526V36.5234C14.2325 35.9301 13.7512 35.4505 13.1583 35.4505Z" fill="#5CAF01"/>
</svg>
