<svg width="57" height="57" viewBox="0 0 57 57" fill="none" xmlns="http://www.w3.org/2000/svg">
<g clip-path="url(#clip0)">
<path d="M5.56641 31.9621C4.95193 31.9621 4.45312 32.4609 4.45312 33.0753C4.45312 33.6898 4.95193 34.1886 5.56641 34.1886C6.18089 34.1886 6.67969 33.6898 6.67969 33.0753C6.67969 32.4609 6.18089 31.9621 5.56641 31.9621Z" fill="#5CAF01"/>
<path d="M51.1684 35.8224L40.6731 39.4306C40.7196 39.1723 40.7457 38.9088 40.7457 38.6413C40.7457 36.186 38.7483 34.1882 36.2926 34.1882H29.0832C28.8919 34.1882 28.7031 34.139 28.5366 34.0451L22.6549 30.737C21.492 30.0816 20.1704 29.735 18.8332 29.735H10.9411C10.4818 28.4395 9.24417 27.5089 7.79298 27.5089H1.11328C0.498368 27.5089 0 28.0073 0 28.6222V48.6609C0 49.2758 0.498368 49.7741 1.11328 49.7741H7.79298C9.21111 49.7741 10.427 48.8831 10.9097 47.6315C12.17 47.7881 13.6282 48.1608 14.5444 48.7104L20.3666 52.2038C22.5723 53.5276 25.0976 54.2273 27.6703 54.2273C29.709 54.2273 31.6842 53.7994 33.5416 52.9557L54.3204 43.8063C56.6218 42.8727 57.7581 40.1116 56.4426 37.6781C55.475 35.8872 53.2089 35.0905 51.1684 35.8224ZM8.90627 46.4395C8.90366 47.051 8.40485 47.5476 7.79298 47.5476H2.22657V29.7355H7.79298C8.40659 29.7355 8.90627 30.2347 8.90627 30.8488V46.4395ZM53.4746 41.7472C53.4628 41.7515 53.4511 41.7568 53.4393 41.7615C53.4393 41.7615 32.6296 50.9244 32.6257 50.9261C31.058 51.6393 29.3907 52.0007 27.6703 52.0007C25.5011 52.0007 23.372 51.411 21.5125 50.2947L15.6899 46.8013C14.4435 46.0538 12.6588 45.598 11.1328 45.4154V31.962H18.8332C19.7882 31.962 20.7319 32.2091 21.5629 32.6774L27.4446 35.9855C27.943 36.2665 28.5101 36.4152 29.0832 36.4152H36.2926C37.5203 36.4152 38.5192 37.4137 38.5192 38.6417C38.5192 39.8651 37.5198 40.8683 36.2926 40.8683H24.9754C24.3605 40.8683 23.8621 41.3667 23.8621 41.9816C23.8621 42.5961 24.3605 43.0944 24.9754 43.0944H36.2926C37.0228 43.0944 37.7416 42.9131 38.3796 42.573C38.3796 42.573 51.9107 37.9216 51.916 37.9199C52.9136 37.5598 54.0416 37.9181 54.4839 38.7365C55.1471 39.9633 54.5987 41.2971 53.4746 41.7472Z" fill="#5CAF01"/>
<path d="M32.4239 29.7864C32.6336 29.9677 32.8932 30.0582 33.1532 30.0582C33.4133 30.0582 33.6733 29.9677 33.8825 29.7864C42.9658 21.9142 48.5844 17.9303 48.5844 11.7394C48.5844 6.84185 45.1171 2.78315 40.2461 2.78315C37.0471 2.78315 34.5975 4.62703 33.0197 7.39414C31.4455 4.63311 28.9984 2.78315 25.7947 2.78315C22.0656 2.78315 18.948 5.19976 17.8521 8.93926C17.679 9.52939 18.0174 10.1478 18.6075 10.3209C19.1976 10.4939 19.816 10.1556 19.9887 9.56548C20.7997 6.79793 23.0784 5.00972 25.7947 5.00972C28.9706 5.00972 31.1985 7.82989 31.9469 10.4557C32.0804 10.9379 32.5196 11.2719 33.0197 11.2719C33.5203 11.2719 33.9591 10.9379 34.0926 10.4557C34.1078 10.4013 35.6542 5.00972 40.2461 5.00972C43.7303 5.00972 46.3578 7.90251 46.3578 11.7394C46.3578 16.6918 41.5168 20.2621 33.1524 27.4741C28.056 23.0975 24.0078 20.0169 21.7068 17.0032C21.3337 16.5144 20.6353 16.4204 20.1465 16.7936C19.6577 17.1667 19.5642 17.8651 19.9369 18.3543C22.5305 21.7511 26.9088 25.0058 32.4239 29.7864Z" fill="#5CAF01"/>
<path d="M18.8145 12.5909C18.2 12.5909 17.7012 13.0897 17.7012 13.7042C17.7012 14.3187 18.2 14.8175 18.8145 14.8175C19.429 14.8175 19.9278 14.3187 19.9278 13.7042C19.9278 13.0897 19.429 12.5909 18.8145 12.5909Z" fill="#5CAF01"/>
</g>
<defs>
<clipPath id="clip0">
<rect width="57" height="57" fill="white"/>
</clipPath>
</defs>
</svg>
