<svg width="53" height="53" viewBox="0 0 53 53" fill="none" xmlns="http://www.w3.org/2000/svg">
<g clip-path="url(#clip0)">
<path d="M51.9645 50.9308H47.4098V42.7531C47.4098 42.1814 46.9463 41.718 46.3747 41.718C45.8031 41.718 45.3395 42.1814 45.3395 42.7531V50.9308H32.9177V31.2629C32.9177 30.6912 32.4542 30.2278 31.8825 30.2278H21.117C20.5453 30.2278 20.0818 30.6912 20.0818 31.2629V50.9308H7.65997V27.5363H8.0583C8.33282 27.5363 8.59606 27.4272 8.79026 27.2331L26.4997 9.52359L44.2092 27.2331C44.4034 27.4272 44.6667 27.5363 44.9412 27.5363H45.3395V35.2999C45.3395 35.8716 45.8031 36.3351 46.3747 36.3351C46.9463 36.3351 47.4098 35.8716 47.4098 35.2999V27.5363H51.9645C52.3832 27.5363 52.7606 27.284 52.9209 26.8973C53.0811 26.5105 52.9924 26.0652 52.6965 25.7692L27.2317 0.30442C26.8274 -0.0998074 26.1721 -0.0998074 25.7677 0.30442L16.0373 10.0349C15.633 10.4391 15.633 11.0945 16.0373 11.4988C16.4416 11.9031 17.097 11.9031 17.5013 11.4988L26.4997 2.50029L49.4653 25.466H45.37L27.2317 7.32772C26.8274 6.92349 26.1721 6.92349 25.7677 7.32772L7.62944 25.466H3.53406L11.7044 17.2957C12.1086 16.8915 12.1086 16.236 11.7044 15.8317C11.3002 15.4276 10.6447 15.4275 10.2404 15.8317L0.302937 25.7692C0.0069868 26.0652 -0.0817258 26.5104 0.0785158 26.8973C0.238757 27.2841 0.616278 27.5363 1.035 27.5363H5.58967V50.9307H1.035C0.463386 50.9307 -0.000155753 51.3942 -0.000155753 51.9659C-0.000155753 52.5376 0.463386 53.001 1.035 53.001H6.62482H21.117H31.8825H46.3747H51.9645C52.5361 53.001 52.9996 52.5376 52.9996 51.9659C52.9996 51.3942 52.5361 50.9308 51.9645 50.9308ZM30.8474 50.9308H22.1521V32.2981H30.8474V50.9308Z" fill="#5CAF01"/>
<path d="M42.0273 30.2267H36.2304C35.6588 30.2267 35.1953 30.6901 35.1953 31.2618V41.6133C35.1953 42.185 35.6588 42.6485 36.2304 42.6485H42.0273C42.5989 42.6485 43.0624 42.185 43.0624 41.6133V31.2618C43.0624 30.6901 42.5989 30.2267 42.0273 30.2267ZM40.9921 40.5782H37.2656V32.297H40.9921V40.5782Z" fill="#5CAF01"/>
<path d="M16.7696 30.2267H10.9727C10.4011 30.2267 9.93756 30.6901 9.93756 31.2618V41.6133C9.93756 42.185 10.4011 42.6485 10.9727 42.6485H16.7696C17.3412 42.6485 17.8047 42.185 17.8047 41.6133V31.2618C17.8047 30.6901 17.3412 30.2267 16.7696 30.2267ZM15.7344 40.5782H12.0079V32.297H15.7344V40.5782Z" fill="#5CAF01"/>
<path d="M26.5 17.0098C23.8744 17.0098 21.7383 19.146 21.7383 21.7715C21.7383 24.3971 23.8744 26.5332 26.5 26.5332C29.1256 26.5332 31.2617 24.3971 31.2617 21.7715C31.2617 19.146 29.1256 17.0098 26.5 17.0098ZM26.5 24.4629C25.0159 24.4629 23.8086 23.2555 23.8086 21.7715C23.8086 20.2875 25.0159 19.0801 26.5 19.0801C27.9841 19.0801 29.1914 20.2875 29.1914 21.7715C29.1914 23.2555 27.9841 24.4629 26.5 24.4629Z" fill="#5CAF01"/>
<path d="M25.2649 40.8815C25.0725 40.6889 24.8053 40.5782 24.5332 40.5782C24.261 40.5782 23.9939 40.6889 23.8013 40.8815C23.6088 41.074 23.498 41.3411 23.498 41.6133C23.498 41.8856 23.6087 42.1526 23.8013 42.3452C23.994 42.5377 24.261 42.6485 24.5332 42.6485C24.8054 42.6485 25.0725 42.5377 25.2649 42.3452C25.4575 42.1526 25.5683 41.8856 25.5683 41.6133C25.5683 41.3411 25.4576 41.074 25.2649 40.8815Z" fill="#5CAF01"/>
<path d="M14.4994 13.0359C14.307 12.8433 14.0399 12.7326 13.7676 12.7326C13.4954 12.7326 13.2283 12.8433 13.0358 13.0359C12.8432 13.2284 12.7325 13.4955 12.7325 13.7677C12.7325 14.04 12.8431 14.307 13.0358 14.4996C13.2284 14.6921 13.4954 14.8029 13.7676 14.8029C14.0399 14.8029 14.307 14.6921 14.4994 14.4996C14.6919 14.307 14.8028 14.04 14.8028 13.7677C14.8028 13.4955 14.692 13.2284 14.4994 13.0359Z" fill="#5CAF01"/>
<path d="M47.1067 38.0171C46.9142 37.8247 46.6471 37.7138 46.3749 37.7138C46.1027 37.7138 45.8356 37.8246 45.6431 38.0171C45.4505 38.2107 45.3398 38.4767 45.3398 38.749C45.3398 39.0212 45.4504 39.2883 45.6431 39.4818C45.8356 39.6744 46.1027 39.7841 46.3749 39.7841C46.6472 39.7841 46.9142 39.6744 47.1067 39.4818C47.2992 39.2883 47.4101 39.0222 47.4101 38.749C47.4101 38.4767 47.2993 38.2096 47.1067 38.0171Z" fill="#5CAF01"/>
</g>
<defs>
<clipPath id="clip0">
<rect width="53" height="53" fill="white"/>
</clipPath>
</defs>
</svg>
