<svg width="58" height="58" viewBox="0 0 58 58" fill="none" xmlns="http://www.w3.org/2000/svg">
<path d="M53.752 2.03906H47.7971C47.4335 0.859578 46.3333 0 45.0361 0H20.2001C19.7309 0 19.3505 0.380398 19.3505 0.849609C19.3505 1.31882 19.7309 1.69922 20.2001 1.69922H45.0361C45.692 1.69922 46.2255 2.23277 46.2255 2.88867C46.2255 3.54457 45.692 4.07812 45.0361 4.07812H12.9639C12.308 4.07812 11.7745 3.54457 11.7745 2.88867C11.7745 2.23277 12.308 1.69922 12.9639 1.69922H15.6703C16.7976 1.66286 16.7892 0.0333047 15.6703 0H12.9639C11.6667 0 10.5666 0.859578 10.2029 2.03906H4.24805C1.90562 2.03906 0 3.94468 0 6.28711V39.082C0 41.4245 1.90562 43.3301 4.24805 43.3301H28.1504V50.3925C23.7314 51.4888 24.403 57.8879 29.0001 58C33.5979 57.8874 34.2679 51.488 29.8496 50.3925V43.3301H40.3281C41.4402 43.2997 41.4606 41.6681 40.3281 41.6309H4.24805C2.84257 41.6309 1.69922 40.4875 1.69922 39.082V38.3061H56.3008V39.082C56.3008 40.4875 55.1574 41.6309 53.752 41.6309H44.8594C43.7426 41.6609 43.7319 43.2956 44.8594 43.3301H53.752C56.0944 43.3301 58 41.4245 58 39.082V6.28711C58 3.94468 56.0944 2.03906 53.752 2.03906ZM31.1523 54.1484C31.1523 55.3353 30.1868 56.3008 29 56.3008C26.1486 56.1926 26.1493 52.1038 29 51.9961C30.1868 51.9961 31.1523 52.9616 31.1523 54.1484ZM1.69922 36.6068V6.28711C1.69922 4.88163 2.84257 3.73828 4.24805 3.73828H10.2029C10.5665 4.91777 11.6667 5.77734 12.9639 5.77734H45.0361C46.3333 5.77734 47.4334 4.91777 47.7971 3.73828H53.752C55.1574 3.73828 56.3008 4.88163 56.3008 6.28711V36.6068H1.69922Z" fill="#5CAF01"/>
<path d="M40.8878 14.5207C39.972 12.695 36.7554 12.2524 33.9004 12.8964C31.5955 5.9228 26.4022 5.92778 24.0996 12.8964C16.9078 11.4057 14.3156 15.9057 19.1991 21.3842C14.1292 27.1516 17.2266 31.3209 24.0996 29.8719C26.4046 36.8455 31.5978 36.8405 33.9004 29.8719C40.7817 31.3215 43.866 27.1449 38.8009 21.3842C40.7866 19.2332 42.011 16.2265 40.8878 14.5207ZM39.4163 15.3703C39.9915 16.3664 39.3332 18.1563 37.6269 20.1516C36.8386 19.3897 35.948 18.6442 34.9797 17.9319C34.8469 16.7365 34.6464 15.592 34.3806 14.528C36.9627 14.0476 38.8411 14.3739 39.4163 15.3703ZM31.2347 25.2547C30.492 25.6835 29.7441 26.074 29 26.4243C27.4786 25.7081 26.0152 24.8635 24.6336 23.905C24.4942 22.2294 24.4942 20.5391 24.6336 18.8635C26.015 17.9049 27.4786 17.0597 28.9995 16.3425C30.5208 17.0598 31.9846 17.9047 33.3664 18.8635C33.5058 20.539 33.5058 22.2293 33.3664 23.905C32.7034 24.365 31.9924 24.8172 31.2347 25.2547ZM33.0908 26.1193C32.989 26.7251 32.869 27.3012 32.7333 27.8442C32.1854 27.6881 31.6256 27.5044 31.058 27.2931C31.7505 26.9275 32.4281 26.5363 33.0908 26.1193ZM26.942 27.2931C26.3744 27.5044 25.8146 27.6881 25.2667 27.8442C25.131 27.3014 25.011 26.7252 24.9092 26.1193C25.5719 26.5363 26.2495 26.9275 26.942 27.2931ZM22.8538 22.5584C22.3793 22.1665 21.9387 21.7738 21.5359 21.3842C21.9387 20.9945 22.3793 20.6019 22.8538 20.2101C22.824 20.9928 22.824 21.7756 22.8538 22.5584ZM24.9092 16.6491C25.0114 16.0416 25.1317 15.4641 25.2677 14.9201C25.8069 15.0742 26.3673 15.2588 26.9444 15.474C26.2511 15.8399 25.5727 16.2315 24.9092 16.6491ZM31.0553 15.4739C31.6324 15.2587 32.1928 15.074 32.7322 14.9198C32.8682 15.464 32.9886 16.0416 33.0908 16.6491C32.4272 16.2315 31.7488 15.8398 31.0553 15.4739ZM35.1462 20.2101C35.6207 20.6019 36.0613 20.9946 36.4641 21.3842C36.0613 21.7739 35.6207 22.1665 35.1462 22.5584C35.176 21.7756 35.176 20.9928 35.1462 20.2101ZM29 9.35647C30.1505 9.35647 31.3724 10.8199 32.2473 13.2964C31.1929 13.5982 30.1015 13.9968 29 14.4795C27.8985 13.9968 26.8071 13.5982 25.7527 13.2964C26.6276 10.8199 27.8495 9.35647 29 9.35647ZM18.5837 15.3703C19.2714 14.1099 22.0013 14.1893 23.6193 14.5284C23.3535 15.5924 23.153 16.7367 23.0203 17.9319C22.0519 18.6442 21.1614 19.3897 20.3731 20.1516C18.6668 18.1563 18.0085 16.3664 18.5837 15.3703ZM22.883 28.3519C17.844 29.0118 17.0933 26.4649 20.3731 22.6168C21.1614 23.3787 22.0519 24.1243 23.0203 24.8366C23.1528 26.0291 23.3526 27.1712 23.6174 28.2331C23.3691 28.2789 23.1233 28.32 22.883 28.3519ZM29 33.4119C27.8495 33.4119 26.6276 31.9484 25.7527 29.4719C26.8071 29.1702 27.8985 28.7715 29 28.2888C30.1015 28.7715 31.1929 29.1702 32.2473 29.4719C31.3724 31.9484 30.1505 33.4119 29 33.4119ZM39.4163 27.398C38.924 28.4563 36.3751 28.673 34.3826 28.233C34.6474 27.1711 34.8472 26.029 34.9797 24.8365C35.9481 24.1242 36.8386 23.3787 37.6269 22.6167C39.3332 24.6122 39.9915 26.4019 39.4163 27.398Z" fill="#5CAF01"/>
<path d="M29 18.1356C27.2088 18.1356 25.7516 19.5929 25.7516 21.3841C25.9149 25.6878 32.0858 25.6865 32.2486 21.3841C32.2485 19.5929 30.7912 18.1356 29 18.1356ZM29 22.9335C28.1458 22.9335 27.4508 22.2385 27.4508 21.3842C27.5287 19.3318 30.4718 19.3322 30.5494 21.3842C30.5493 22.2385 29.8543 22.9335 29 22.9335Z" fill="#5CAF01"/>
<path d="M13.8992 20.4239C12.8058 20.4239 12.804 22.1231 13.8992 22.1231C14.9925 22.1231 14.9944 20.4239 13.8992 20.4239Z" fill="#5CAF01"/>
<path d="M11.0007 24.8753C9.90726 24.8753 9.90545 26.5745 11.0007 26.5745C12.0939 26.5745 12.0957 24.8753 11.0007 24.8753Z" fill="#5CAF01"/>
<path d="M9.34422 12.7635C8.25083 12.7635 8.24902 14.4627 9.34422 14.4627C10.4376 14.4627 10.4394 12.7635 9.34422 12.7635Z" fill="#5CAF01"/>
<path d="M44.1009 20.6452C43.0075 20.6452 43.0057 22.3444 44.1009 22.3444C45.1943 22.3444 45.1961 20.6452 44.1009 20.6452Z" fill="#5CAF01"/>
<path d="M46.9994 16.1938C45.906 16.1938 45.9042 17.893 46.9994 17.893C48.0928 17.893 48.0946 16.1938 46.9994 16.1938Z" fill="#5CAF01"/>
<path d="M48.6557 28.3056C47.5624 28.3056 47.5605 30.0048 48.6557 30.0048C49.749 30.0048 49.7508 28.3056 48.6557 28.3056Z" fill="#5CAF01"/>
</svg>
