<svg width="56" height="56" viewBox="0 0 56 56" fill="none" xmlns="http://www.w3.org/2000/svg">
<g clip-path="url(#clip0)">
<path d="M51.4062 19.6875H36.0233C36.072 19.1479 36.0984 18.6014 36.0984 18.049C36.0984 8.09674 28.0013 0 18.049 0C14.8788 0 11.7604 0.833984 9.0307 2.41138C8.50775 2.71344 8.32874 3.38251 8.6308 3.90546C8.93329 4.42883 9.60236 4.60742 10.1253 4.30536C12.5226 2.9198 15.2625 2.1875 18.049 2.1875C26.7952 2.1875 33.9109 9.30286 33.9109 18.049C33.9109 26.7952 26.7952 33.9109 18.049 33.9109C14.3879 33.9109 10.9486 32.698 8.10272 30.4037C7.81732 30.1738 7.43921 30.105 7.09485 30.2106L4.19171 30.9698L5.32904 28.4704C5.49268 28.1115 5.44995 27.6928 5.21796 27.3737C3.23553 24.6508 2.1875 21.4264 2.1875 18.049C2.1875 15.2552 2.92365 12.5085 4.31647 10.1061C4.61938 9.58313 4.44122 8.91406 3.9187 8.61114C3.39618 8.30823 2.72711 8.48596 2.42377 9.00891C0.838257 11.7441 0 14.8703 0 18.049C0 21.6759 1.06256 25.149 3.07916 28.1333L1.24799 32.1567C1.07281 32.5408 1.13477 32.9911 1.40649 33.3141C1.67822 33.6371 2.11145 33.7747 2.5199 33.6678L7.17133 32.4519C10.2894 34.8073 14.1299 36.0984 18.049 36.0984C18.9022 36.0984 19.7409 36.0373 20.5625 35.9224V45.5C20.5625 48.0327 22.6231 50.0937 25.1558 50.0937H40.6251L47.5418 55.7526C47.7409 55.9158 47.9866 55.9996 48.2344 55.9996C48.3937 55.9996 48.5535 55.965 48.7026 55.8945C49.0846 55.7133 49.3281 55.3288 49.3281 54.9058V50.0937H51.4062C53.9394 50.0937 56 48.0327 56 45.5V24.2812C56 21.7481 53.9394 19.6875 51.4062 19.6875ZM53.8125 45.5C53.8125 46.8266 52.7333 47.9062 51.4062 47.9062H48.2344C47.6302 47.9062 47.1406 48.3959 47.1406 49V52.5978L41.7385 48.178C41.4407 47.9062 41.1801 47.9062 40.5944 47.9062H25.1558C23.8292 47.9062 22.75 46.8266 22.75 45.5V35.4759C29.2198 33.7289 34.2604 28.4678 35.6887 21.875H51.4062C52.7333 21.875 53.8125 22.9542 53.8125 24.2812V45.5Z" fill="#5CAF01"/>
<path d="M43.7239 38.1287C44.0948 37.954 44.352 37.5776 44.352 37.1401C44.352 36.5364 43.8623 36.0463 43.2582 36.0463H42.8104L39.2831 28.0073C39.1084 27.6095 38.7153 27.3527 38.2812 27.3527C37.8471 27.3527 37.4541 27.6095 37.2798 28.0073L33.7524 36.0463H33.3047C32.7005 36.0463 32.2109 36.5364 32.2109 37.1401C32.2109 37.5776 32.4681 37.954 32.839 38.1287L31.5252 41.1229C31.2825 41.6761 31.5341 42.3213 32.087 42.564C32.6403 42.8066 33.2854 42.555 33.5281 42.0017L35.1815 38.2338H41.3813L43.0348 42.0017C43.2146 42.4119 43.6158 42.6563 44.0371 42.6563C44.1836 42.6563 44.3327 42.6268 44.4759 42.564C45.0287 42.3213 45.2808 41.6761 45.0377 41.1229L43.7239 38.1287ZM36.1411 36.0463L38.2812 31.1689L40.4213 36.0463H36.1411Z" fill="#5CAF01"/>
<path d="M6.05963 7.15295C6.34717 7.15295 6.62915 7.03589 6.83295 6.83252C7.03632 6.62915 7.15338 6.34717 7.15338 6.0592C7.15338 5.77167 7.03632 5.48969 6.83295 5.28589C6.62915 5.08252 6.34717 4.96545 6.05963 4.96545C5.77081 4.96545 5.48969 5.08252 5.28632 5.28589C5.08295 5.48969 4.96588 5.77167 4.96588 6.0592C4.96588 6.34717 5.08295 6.62915 5.28632 6.83252C5.48969 7.03632 5.77167 7.15295 6.05963 7.15295Z" fill="#5CAF01"/>
<path d="M11.5203 24.7055C10.9905 24.996 10.7965 25.6608 11.0871 26.1906C11.2862 26.5533 11.6609 26.7589 12.0471 26.7589C12.2248 26.7589 12.4051 26.7153 12.5722 26.6238C15.0113 25.2861 16.8878 23.2054 17.9854 20.7518C19.0834 23.2054 20.9594 25.2861 23.3986 26.6238C23.5656 26.7153 23.7459 26.7589 23.9237 26.7589C24.3099 26.7589 24.6846 26.5533 24.8837 26.1906C25.1742 25.6608 24.9803 24.996 24.4505 24.7055C21.5952 23.1396 19.6734 20.3412 19.1962 17.1791H24.0523C24.6564 17.1791 25.146 16.6895 25.146 16.0854C25.146 15.4813 24.6564 14.9916 24.0523 14.9916H19.0791V10.4338C19.0791 9.82965 18.5895 9.34003 17.9854 9.34003C17.3813 9.34003 16.8916 9.82965 16.8916 10.4338V14.9916H12.9405C12.3363 14.9916 11.8467 15.4813 11.8467 16.0854C11.8467 16.6895 12.3363 17.1791 12.9405 17.1791H16.7746C16.2973 20.3412 14.3756 23.1401 11.5203 24.7055Z" fill="#5CAF01"/>
</g>
<defs>
<clipPath id="clip0">
<rect width="56" height="56" fill="white"/>
</clipPath>
</defs>
</svg>
